<svg width="48" height="46" viewBox="0 0 48 46" fill="none" xmlns="http://www.w3.org/2000/svg">
<path d="M12.9349 45.5172C11.6772 45.5172 10.4251 45.1262 9.35497 44.3659C7.46298 43.0135 6.53629 40.7651 6.92793 38.495L8.25177 30.9024C8.40622 30.0117 8.10835 29.1047 7.45195 28.4748L1.84767 23.0981C0.170805 21.4905 -0.419409 19.1334 0.30319 16.9447C1.02579 14.756 2.91227 13.1919 5.22348 12.8606L12.968 11.7527C13.8781 11.6223 14.6614 11.063 15.0696 10.2537L18.5336 3.3455C19.5706 1.28172 21.6612 0 24 0C26.3388 0 28.4349 1.28172 29.4664 3.3455L32.9304 10.2537C33.1125 10.6176 33.3662 10.9326 33.6916 11.1824C34.0778 11.4866 34.5411 11.6821 35.032 11.7527L42.7765 12.8552C45.0877 13.1865 46.9742 14.7506 47.6968 16.9393C48.4194 19.128 47.8292 21.4851 46.1523 23.0926L40.5481 28.4693C39.8916 29.0993 39.5938 30.0063 39.7482 30.897L41.0721 38.4895C41.4692 40.7597 40.537 43.0081 38.645 44.3604C36.753 45.7128 34.2929 45.8866 32.2244 44.8166L25.2963 41.2322C24.4854 40.814 23.5146 40.814 22.7037 41.2322L15.7756 44.8166C14.882 45.2891 13.9057 45.5172 12.9349 45.5172ZM24.0055 3.24774C22.9189 3.24774 21.9867 3.818 21.5068 4.77928L18.0427 11.6875C17.1546 13.458 15.4391 14.6854 13.4534 14.9733L5.70889 16.0812C4.63326 16.2333 3.79483 16.9339 3.45835 17.9495C3.12187 18.9651 3.38664 20.0187 4.1644 20.7627L9.76868 26.1394C11.2084 27.5189 11.8592 29.5066 11.5228 31.4509L10.1989 39.0435C10.0169 40.0971 10.4306 41.1018 11.3076 41.7264C12.1847 42.3564 13.2824 42.4324 14.2422 41.9328L21.1703 38.3483C22.9464 37.4305 25.0701 37.4305 26.8463 38.3483L33.7744 41.9328C34.7342 42.4324 35.8319 42.351 36.7089 41.7264C37.586 41.0964 37.9997 40.0971 37.8176 39.0435L36.4938 31.4509C36.1518 29.5012 36.8082 27.5189 38.2479 26.1394L43.8521 20.7627C44.6299 20.0187 44.8947 18.9651 44.5582 17.9495C44.2217 16.9339 43.3833 16.2333 42.3077 16.0812L34.5577 14.9733C33.4875 14.8212 32.4781 14.3867 31.6287 13.7241C30.9336 13.1756 30.36 12.475 29.9628 11.6875L26.5043 4.77928C26.0244 3.818 25.0867 3.24774 24.0055 3.24774Z" fill="white"/>
<path d="M17.9489 19.7688C17.0829 19.7688 16.3823 20.4585 16.3823 21.3112V22.821C16.3823 23.6737 17.0829 24.3634 17.9489 24.3634C18.8149 24.3634 19.5154 23.6737 19.5154 22.821V21.3166C19.5154 20.4585 18.8149 19.7688 17.9489 19.7688ZM30.1889 19.7688C29.3229 19.7688 28.6224 20.4585 28.6224 21.3112V22.821C28.6224 23.6737 29.3229 24.3634 30.1889 24.3634C31.0549 24.3634 31.7555 23.6737 31.7555 22.821V21.3166C31.7555 20.4585 31.0549 19.7688 30.1889 19.7688ZM27.9384 28.2792C27.2213 27.8121 26.2505 28.0131 25.7706 28.7137C25.7651 28.7245 25.0866 29.6912 24.0551 29.6912C23.0512 29.6912 22.4279 28.7951 22.3838 28.7354C21.9259 28.0239 20.9661 27.8067 20.2325 28.252C19.4989 28.7028 19.2727 29.6532 19.725 30.381C20.2877 31.2717 21.8322 32.7815 24.0496 32.7815C26.256 32.7815 27.8225 31.2825 28.3962 30.3973C28.8651 29.6858 28.6555 28.7462 27.9384 28.2792Z" fill="white"/>
</svg>
