<svg width="40" height="35" viewBox="0 0 40 35" fill="none" xmlns="http://www.w3.org/2000/svg">
<path d="M39.2208 13.944L21.5584 0.504C20.5195 -0.168 18.961 -0.168 18.1818 0.504L0.519481 13.944C0.25974 14.392 0 14.84 0 15.288C0 16.184 1.03896 17.08 2.07792 17.08H4.41558V30.52C4.41558 32.984 6.75325 35 9.61039 35H30.3896C33.2468 35 35.5844 32.984 35.5844 30.52V17.08H37.9221C38.4416 17.08 38.961 16.856 39.4805 16.408C39.7403 15.96 40 15.512 40 15.064C40 14.616 39.7403 14.168 39.2208 13.944ZM17.4026 32.76V23.8H22.5974V32.76H17.4026ZM32.987 14.84V30.52C32.987 31.864 31.9481 32.76 30.3896 32.76H25.1948V23.8C25.1948 22.456 24.1558 21.56 22.5974 21.56H17.4026C15.8442 21.56 14.8052 22.456 14.8052 23.8V32.76H9.61039C8.05195 32.76 7.01299 31.864 7.01299 30.52V14.84H3.37662L20 2.072L36.6234 14.84H32.987Z" fill="#999999"/>
</svg>
