<svg width="40" height="36" viewBox="0 0 40 36" fill="none" xmlns="http://www.w3.org/2000/svg">
<path d="M20.406 17.1427C18.9161 17.1427 17.7041 15.9222 17.7041 14.4216C17.7041 12.9211 18.9161 11.7006 20.406 11.7006C21.8959 11.7006 23.1079 12.9211 23.1079 14.4216C23.1079 15.9222 21.8959 17.1427 20.406 17.1427ZM20.406 13.2168C19.7525 13.2168 19.2203 13.7575 19.2203 14.4216C19.2203 15.0862 19.752 15.6265 20.406 15.6265C21.06 15.6265 21.5917 15.0857 21.5917 14.4216C21.5917 13.7575 21.06 13.2168 20.406 13.2168ZM30.0399 17.1427C28.55 17.1427 27.3381 15.9222 27.3381 14.4216C27.3381 12.9211 28.55 11.7006 30.0399 11.7006C31.5299 11.7006 32.7418 12.9211 32.7418 14.4216C32.7413 15.9222 31.5294 17.1427 30.0399 17.1427ZM30.0399 13.2168C29.3865 13.2168 28.8543 13.7575 28.8543 14.4216C28.8543 15.0862 29.386 15.6265 30.0399 15.6265C30.6939 15.6265 31.2256 15.0857 31.2256 14.4216C31.2251 13.7575 30.6934 13.2168 30.0399 13.2168Z" fill="#999999"/>
<path d="M10.7744 17.31C9.95165 17.31 9.13391 16.9612 8.56332 16.284C7.53634 15.066 7.692 13.2395 8.91002 12.2125C10.128 11.1855 11.9546 11.3412 12.9815 12.5592C14.0085 13.7772 13.8528 15.6037 12.6348 16.6307C12.0935 17.0871 11.4325 17.31 10.7744 17.31ZM9.7222 15.3066C10.2104 15.8852 11.0782 15.9595 11.6574 15.4713C12.2361 14.9831 12.3104 14.1153 11.8221 13.5366C11.3339 12.958 10.4662 12.8837 9.88747 13.3719C9.30878 13.8601 9.23449 14.7279 9.7222 15.3066Z" fill="#999999"/>
<path d="M29.4846 35.2578C29.0687 35.2578 28.6547 35.1234 28.305 34.8575C28.2802 34.8388 28.2565 34.8191 28.2332 34.7984L22.6481 29.8622H8.92034C4.00177 29.8622 0 25.9544 0 21.1516V8.71059C0 3.90776 4.00177 0 8.92034 0H31.0792C31.7771 0 32.3427 0.565544 32.3427 1.2635C32.3427 1.96146 31.7771 2.52701 31.0792 2.52701H8.92034C5.39516 2.52701 2.52701 5.30116 2.52701 8.71059V21.1516C2.52701 24.561 5.39516 27.3351 8.92034 27.3351H23.1267C23.435 27.3351 23.7326 27.4478 23.9636 27.652L28.9292 32.0404L29.0262 28.2767C29.0439 27.5919 29.6044 27.0461 30.2892 27.0461C33.2327 27.0461 35.0769 26.6407 36.0927 25.7709C37.0469 24.9537 37.473 23.529 37.473 21.1521V8.71059C37.473 7.60174 37.1662 6.51513 36.5865 5.567C36.2221 4.97163 36.4096 4.19382 37.005 3.82993C37.6004 3.46604 38.3782 3.65304 38.7421 4.2484C39.5648 5.59328 40 7.13627 40 8.71059V21.1516C40 24.3331 39.302 26.3496 37.7363 27.6899C36.3955 28.8382 34.4512 29.425 31.5209 29.5478L31.4284 33.1281C31.4971 33.8695 31.1428 34.5811 30.4974 34.9728C30.1831 35.1633 29.8328 35.2578 29.4846 35.2578Z" fill="#999999"/>
</svg>
