<svg width="40" height="35" viewBox="0 0 40 35" fill="none" xmlns="http://www.w3.org/2000/svg">
<path d="M37.5 15.1675H2.5V9.3325C2.5 8.045 3.62 7 5 7H35C36.38 7 37.5 8.045 37.5 9.3325V15.1675ZM17.5 18.6675C17.501 18.2591 17.62 17.8575 17.8457 17.5H22.1543C22.38 17.8575 22.499 18.2591 22.5 18.6675C22.5 19.955 21.38 21 20 21C18.62 21 17.5 19.955 17.5 18.6675ZM37.5 30.3325C37.5 31.6225 36.38 32.6675 35 32.6675H5C3.62 32.6675 2.5 31.6225 2.5 30.3325V17.5H15.1771C15.0714 17.875 15 18.26 15 18.6675C15 21.2425 17.24 23.3325 20 23.3325C22.76 23.3325 25 21.245 25 18.6675C25 18.26 24.9286 17.875 24.8229 17.5H37.5V30.3325ZM15 3.5C15 2.855 15.56 2.3325 16.2486 2.3325H23.7486C24.44 2.3325 25 2.8575 25 3.5V4.6675H15V3.5ZM35 4.6675H27.5V2.3325C27.5 1.045 26.38 0 25 0H15C13.62 0 12.5 1.045 12.5 2.3325V4.6675H5C2.24 4.6675 0 6.755 0 9.3325V30.3325C0 32.91 2.24 35 5 35H35C37.76 35 40 32.91 40 30.3325V9.3325C40 6.7575 37.76 4.6675 35 4.6675Z" fill="#999999"/>
</svg>
